# xmcd
#
# Track frame offsets:
#	150
#	17039
#	34991
#	56398
#	76023
#	92879
#	111318
#	129541
#	148224
#	172154
#	194759
#	214469
#	235620
#	252440
#	269779
#	289917
#
# Disc length: 4128 seconds
#
# Revision: 0
# Processed by: cddbd v1.5.1PL2 Copyright (c) Steve Scherf et al.
# Submitted via: EasyCDDAExtractor 9.0.0.1
#
DISCID=fe101e10
DTITLE=Various Artist - HKG Romantic Songs
DYEAR=1900
DGENRE=
TTITLE0=Say that you love me
TTITLE1=Corazon De Melao
TTITLE2=You are the one
TTITLE3=Within you remain
TTITLE4=I'm sorry love
TTITLE5=Say you'll be mine
TTITLE6=Supermarket love affair
TTITLE7=Lost Christmas
TTITLE8=Freddy Falls in love
TTITLE9=Always be there
TTITLE10=Do we really care
TTITLE11=Kiss and say goodbye
TTITLE12=It's just not the same
TTITLE13=Speak of love
TTITLE14=Life goes on
TTITLE15=Speak my language
EXTD=
EXTT0=
EXTT1=
EXTT2=
EXTT3=
EXTT4=
EXTT5=
EXTT6=
EXTT7=
EXTT8=
EXTT9=
EXTT10=
EXTT11=
EXTT12=
EXTT13=
EXTT14=
EXTT15=
PLAYORDER=
